<svg version="1" xmlns="http://www.w3.org/2000/svg" width="666.667" height="666.667" viewBox="0 0 500.000000 500.000000"><path d="M332.5 151.6c-1.6.3-6.8 1.4-11.5 2.5-34.9 8.1-54 36-46.5 67.8 2.2 9.1 5.9 15.3 13.6 22.5 10.4 9.9 17.7 13.1 57.9 25.6 21 6.6 29 11.3 32.9 19.3 5.6 11.6-.2 23.4-14.1 28.5-5.6 2-22.9 2.7-31.2 1.3-15.6-2.7-34.2-11.1-48.5-21.9-4.6-3.4-8.5-6.1-8.6-6-.2.2-3.7 7.5-7.9 16.2l-7.6 16 2.7 2.3c22 18.3 52.8 29.3 82.3 29.3 37.9 0 64.9-15.2 74.3-41.8 3-8.4 2.9-27.3-.1-35.6-7.6-20.5-21.5-29.9-63.2-42.6-32.1-9.9-42-17.1-42-30.8 0-4.3 2.1-8.2 6.4-12 4.6-4.1 9.1-5.3 20.7-5.9 15.8-.8 33.1 3.5 52.9 13.4 5.7 2.9 10.5 5.1 10.6 5 .2-.1 3.6-7.5 7.7-16.4 8.7-18.7 9.2-16-4.3-22.8-19.1-9.6-35-13.5-57.5-14-8.8-.2-17.3-.1-19 .1zM87 253.5V354h151v-34H125l.2-25.3.3-25.2 48.8-.3 48.7-.2v-33h-98v-50h109v-33H87v100.5z"/></svg>